<?xml version="1.0" encoding="UTF-8"?>
<svg viewBox="0 0 142.3 142.3" xmlns="http://www.w3.org/2000/svg">
<defs>
<style>.cls-1,.cls-12,.cls-13,.cls-14,.cls-15,.cls-4{fill:none;}.cls-1{clip-rule:evenodd;}.cls-2{clip-path:url(#b);}.cls-3{fill:url(#a);}.cls-15,.cls-4{stroke:#856500;}.cls-12,.cls-13,.cls-14,.cls-15,.cls-4{stroke-miterlimit:22.93;}.cls-4{stroke-width:0.28px;}.cls-5{fill:#856500;}.cls-6{fill:#fff;}.cls-6,.cls-8{fill-rule:evenodd;}.cls-16,.cls-17,.cls-7{fill:#575656;}.cls-10,.cls-11,.cls-8,.cls-9{fill:#a4863e;}.cls-9{font-size:5.24px;}.cls-10,.cls-11,.cls-9{font-family:TrebuchetMS, Trebuchet MS;}.cls-10{font-size:5.09px;}.cls-11{font-size:5.18px;}.cls-12,.cls-13{stroke:#c5a660;}.cls-12{stroke-width:0.85px;}.cls-13,.cls-14,.cls-15{stroke-width:0.57px;}.cls-14{stroke:#bc9f5c;}.cls-16{font-size:11.57px;}.cls-16,.cls-17{font-family:TimesNewRomanPSMT, Times New Roman;}.cls-17{font-size:6.17px;}</style>
<clipPath id="b">
<path class="cls-1" d="M30.84,18h9.59l4.8-8.31A12.94,12.94,0,0,1,62.84,4.92l8.31,4.8,8.31-4.8A12.94,12.94,0,0,1,97.07,9.64L101.86,18h9.6a12.93,12.93,0,0,1,12.89,12.89v9.59l8.31,4.8a12.94,12.94,0,0,1,4.72,17.61l-4.8,8.31,4.8,8.31a12.94,12.94,0,0,1-4.72,17.61l-8.31,4.79v9.6a12.93,12.93,0,0,1-12.89,12.89h-9.6l-4.79,8.31a12.94,12.94,0,0,1-17.61,4.72l-8.31-4.8-8.31,4.8a12.94,12.94,0,0,1-17.61-4.72l-4.8-8.31H30.84A12.93,12.93,0,0,1,18,111.46v-9.6L9.64,97.07A12.94,12.94,0,0,1,4.92,79.46l4.8-8.31-4.8-8.31A12.94,12.94,0,0,1,9.64,45.23L18,40.43V30.84A12.93,12.93,0,0,1,30.84,18"/>
</clipPath>
<linearGradient id="a" x1="15.22" x2="136.72" y1="12.28" y2="140.18" gradientUnits="userSpaceOnUse">
<stop stop-color="#a28c54" offset="0"/>
<stop stop-color="#d6b46d" offset=".27"/>
<stop stop-color="#a0802d" offset=".52"/>
<stop stop-color="#d6b46d" offset=".67"/>
<stop stop-color="#a28c54" offset="1"/>
</linearGradient>
</defs>
<g data-name="Layer 2">
<g data-name="Layer 1">
<g class="cls-2">
<rect class="cls-3" x="1.38" y="1.38" width="139.54" height="139.54"/>
</g>
<path class="cls-4" d="M58.16,20.2A54,54,0,0,0,75.91,9.55,44.16,44.16,0,0,0,90.65,22.64"/>
<path class="cls-4" d="M69.39,18.61A54,54,0,0,0,89,12,44.17,44.17,0,0,0,100.6,28"/>
<path class="cls-4" d="m78.66 19.14a53.92 53.92 0 0 0 20.47-3 44.47 44.47 0 0 0 8.61 17.75"/>
<path class="cls-4" d="m90.2 22.21a53.92 53.92 0 0 0 20.63 1.72 44.24 44.24 0 0 0 4.38 19.24"/>
<path class="cls-4" d="M100.75,27.82a54.23,54.23,0,0,0,19.71,6.35,44.34,44.34,0,0,0-.06,19.72"/>
<path class="cls-4" d="m108.36 34.19a54.29 54.29 0 0 0 18.18 10 44.11 44.11 0 0 0-3.76 19.35"/>
<path class="cls-4" d="m115.61 43.37a54.36 54.36 0 0 0 15.54 13.73 44.08 44.08 0 0 0-7.94 18"/>
<path class="cls-4" d="m120.65 53.93a54.62 54.62 0 0 0 12.14 16.83 44.16 44.16 0 0 0-11.73 15.82"/>
<path class="cls-4" d="m123.25 65.34a54.36 54.36 0 0 0 8.12 19.1 44 44 0 0 0-14.92 12.82"/>
<path class="cls-4" d="M123.46,74.82A54.47,54.47,0,0,0,128,95.06a44,44,0,0,0-17,9.93"/>
<path class="cls-4" d="M121.5,85.91a54.34,54.34,0,0,0,.17,20.75A43.9,43.9,0,0,0,103,112.72"/>
<path class="cls-4" d="m117.34 96.11a54.58 54.58 0 0 0-4.15 20.32 43.73 43.73 0 0 0-19.56 2"/>
<path class="cls-4" d="m111.21 105.14a54.45 54.45 0 0 0-8.26 19 44 44 0 0 0-19.56-2.09"/>
<path class="cls-4" d="m103.34 112.71a54.23 54.23 0 0 0-12 16.88 44 44 0 0 0-18.72-6.09"/>
<path class="cls-4" d="m94.08 118.48a54.2 54.2 0 0 0-15.23 14 44.14 44.14 0 0 0-17.06-9.85"/>
<path class="cls-4" d="M83.83,122.2A53.79,53.79,0,0,0,66,132.75a44.16,44.16,0,0,0-14.67-13.17"/>
<path class="cls-4" d="m73 123.71a53.93 53.93 0 0 0-19.6 6.63 44.44 44.44 0 0 0-11.64-15.93"/>
<path class="cls-4" d="m62.14 123a53.93 53.93 0 0 0-20.55 2.41 44.26 44.26 0 0 0-8.1-18"/>
<path class="cls-4" d="M51.65,119.94A54.18,54.18,0,0,0,31,118a44.13,44.13,0,0,0-4.21-19.27"/>
<path class="cls-4" d="M42,114.83a54,54,0,0,0-19.79-6.14A44.08,44.08,0,0,0,22.06,89"/>
<path class="cls-4" d="m33.6 107.82a54.29 54.29 0 0 0-18.09-10.1 44.06 44.06 0 0 0 3.92-19.32"/>
<path class="cls-4" d="M26.84,99.23A54.56,54.56,0,0,0,11.22,85.59,44.09,44.09,0,0,0,19,67.51"/>
<path class="cls-4" d="M22,89.42A54.45,54.45,0,0,0,9.51,72.85,44,44,0,0,0,20.9,56.79"/>
<path class="cls-4" d="m19.13 77.81a54.49 54.49 0 0 0-8.43-19 43.87 43.87 0 0 0 14.72-13.03"/>
<path class="cls-4" d="m18.82 67.47a54.46 54.46 0 0 0-4.56-20.25 43.88 43.88 0 0 0 17-9.91"/>
<path class="cls-4" d="m20.87 56.11a54.64 54.64 0 0 0 0-20.75 44 44 0 0 0 18.74-5.95"/>
<path class="cls-4" d="m24.73 46.59a54.34 54.34 0 0 0 4-20.35 43.9 43.9 0 0 0 19.55-2.18"/>
<path class="cls-4" d="m30.89 37.39a54.36 54.36 0 0 0 8.16-19 44.06 44.06 0 0 0 19.57 2"/>
<path class="cls-4" d="m38.61 29.87a54.19 54.19 0 0 0 11.88-17 43.93 43.93 0 0 0 18.76 5.95"/>
<path class="cls-4" d="M47.69,24.1A54.29,54.29,0,0,0,62.77,9.91a44.22,44.22,0,0,0,17.17,9.67"/>
<path class="cls-5" d="m56.13 20.7a52.56 52.56 0 0 1 65.3 35.46 52.49 52.49 0 1 1-100.61 30 52.55 52.55 0 0 1 35.26-65.4zm0.13 0.59a52 52 0 0 0-34.84 64.71 51.88 51.88 0 1 0 99.43-29.68 52 52 0 0 0-64.59-35z"/>
<path class="cls-6" d="m71.15 20.11a51 51 0 1 1-51 51 51 51 0 0 1 51-51"/>
<path class="cls-7" d="M117.2,67.17l-.43,0a2,2,0,0,1,.43.46,1.07,1.07,0,0,1,.17.49.83.83,0,0,1-.14.55.86.86,0,0,1-.43.32,3.3,3.3,0,0,1-.77.12l-1.29.09a1,1,0,0,0-.48.11.38.38,0,0,0-.09.3H114L113.92,68H114a.32.32,0,0,0,.18.25.85.85,0,0,0,.44,0l1.48-.11a4.68,4.68,0,0,0,.51-.07.34.34,0,0,0,.16-.13.25.25,0,0,0,0-.17c0-.2-.17-.38-.47-.53l-1.79.14a.9.9,0,0,0-.46.1.34.34,0,0,0-.11.27h-.12l-.13-1.68h.13a.37.37,0,0,0,.15.28.94.94,0,0,0,.47,0l1.88-.14a1,1,0,0,0,.47-.11.42.42,0,0,0,.1-.3h.12Zm-.63-3.67a.43.43,0,0,0-.19-.29,1,1,0,0,0-.56-.07,9.22,9.22,0,0,0-1.11.14,4.35,4.35,0,0,0-.69.17.68.68,0,0,0-.36.23.44.44,0,0,0-.08.31.41.41,0,0,0,.13.24.63.63,0,0,0,.37.13,7.66,7.66,0,0,0,1.36-.16,3.32,3.32,0,0,0,.81-.2.66.66,0,0,0,.29-.25A.35.35,0,0,0,116.57,63.5Zm.24-.06a1.56,1.56,0,0,1-.08.83,1.52,1.52,0,0,1-.54.67,2.19,2.19,0,0,1-.86.34,1.9,1.9,0,0,1-1.22-.16,1.52,1.52,0,0,1-.44-2.31,2.06,2.06,0,0,1,2.43-.4A1.37,1.37,0,0,1,116.81,63.44ZM116.25,61l-2.57.6a.75.75,0,0,0-.42.18.4.4,0,0,0,0,.34l-.12,0-.41-1.77.12,0a.46.46,0,0,0,.2.3.72.72,0,0,0,.45,0l1.89-.43a.81.81,0,0,0,.43-.19.49.49,0,0,0,0-.34l.12,0Zm1.46-.85a.52.52,0,0,1-.07.42.5.5,0,0,1-.34.24.48.48,0,0,1-.42-.07.5.5,0,0,1-.24-.34.49.49,0,0,1,.07-.41.54.54,0,0,1,.34-.25.56.56,0,0,1,.42.07A.5.5,0,0,1,117.71,60.15Zm-.92-2-1.18.34.22.76-.34.1-.22-.76-2,.57a1.76,1.76,0,0,0-.35.13.33.33,0,0,0-.11.13.23.23,0,0,0,0,.14c0,.14.19.25.45.32l0,.12a1,1,0,0,1-.91-.71.82.82,0,0,1,0-.56.85.85,0,0,1,.31-.38,3.49,3.49,0,0,1,.62-.22l1.72-.5-.12-.42.12,0a5.16,5.16,0,0,0,.86.55,4.34,4.34,0,0,0,.9.31Zm-4.61-2,1-.41a2.13,2.13,0,0,0-.74-.39.63.63,0,0,0-.41,0,.4.4,0,0,0-.22.22.32.32,0,0,0,0,.27A.68.68,0,0,0,112.18,56.15Zm-.24.1a1.77,1.77,0,0,1-.91-.82.65.65,0,0,1,0-.51.6.6,0,0,1,.37-.34.87.87,0,0,1,.75.05,6.16,6.16,0,0,1,1.29,1l.31-.12a1.45,1.45,0,0,0,.42-.22.34.34,0,0,0,.1-.2.42.42,0,0,0,0-.27.65.65,0,0,0-.23-.32.2.2,0,0,0-.18,0,.32.32,0,0,0-.13.16.45.45,0,0,1-.23.24.4.4,0,0,1-.32,0,.46.46,0,0,1-.24-.27.51.51,0,0,1,0-.4.4.4,0,0,1,.23-.26.75.75,0,0,1,.53,0,1.33,1.33,0,0,1,.55.39,2.56,2.56,0,0,1,.39.66,1.2,1.2,0,0,1,.09.77.87.87,0,0,1-.27.49,2.47,2.47,0,0,1-.62.3l-1.19.48a1.16,1.16,0,0,0-.26.13.16.16,0,0,0-.06.08.11.11,0,0,0,0,.08c0,.06.09.1.19.13l0,.13a1.23,1.23,0,0,1-.49-.2.74.74,0,0,1-.27-.35.66.66,0,0,1,0-.47A.59.59,0,0,1,111.94,56.25Zm-.56-2.36,0,.13a1.7,1.7,0,0,1-.84-.26,1.38,1.38,0,0,1-.51-.59A1.32,1.32,0,0,1,110,52a1.89,1.89,0,0,1,.94-.86,2,2,0,0,1,1.23-.16,1.42,1.42,0,0,1,1.07.84,1.27,1.27,0,0,1,.1.86.76.76,0,0,1-.4.52.48.48,0,0,1-.35,0,.42.42,0,0,1-.24-.25.48.48,0,0,1,0-.37.88.88,0,0,1,.38-.36A.62.62,0,0,0,113,52a.26.26,0,0,0,0-.21.36.36,0,0,0-.29-.2,1.67,1.67,0,0,0-.84.18,2.76,2.76,0,0,0-.75.51,1.34,1.34,0,0,0-.41.63.7.7,0,0,0,0,.49.68.68,0,0,0,.21.27A1.55,1.55,0,0,0,111.38,53.89Zm.57-4.47-2.28,1.28a.94.94,0,0,0-.38.29.4.4,0,0,0,0,.31l-.11.06-.67-1.18.39-.22a1.7,1.7,0,0,1-.59-.21,1.05,1.05,0,0,1-.37-.41.73.73,0,0,1-.1-.52.86.86,0,0,1,.21-.45,2.92,2.92,0,0,1,.67-.46l1.15-.65c.22-.13.35-.22.38-.29a.43.43,0,0,0,0-.32l.11-.06.67,1.19-2,1.11a1.88,1.88,0,0,0-.38.26.32.32,0,0,0-.09.17.35.35,0,0,0,0,.17.46.46,0,0,0,.17.17,1.49,1.49,0,0,0,.5.11l1.55-.87c.22-.13.35-.22.38-.29a.47.47,0,0,0,0-.32l.1-.06Zm-3.44-4.16a.75.75,0,0,0,0-.81.3.3,0,0,0-.18-.14.8.8,0,0,0-.44,0,3.06,3.06,0,0,0-.74.43,3.74,3.74,0,0,0-.71.61,1,1,0,0,0-.21.46.35.35,0,0,0,.08.22c.12.17.37.23.74.19Zm2.42-.5L107.81,47a2.59,2.59,0,0,0-.36.28.29.29,0,0,0-.08.19.65.65,0,0,0,.11.27l-.1.07-1-1,.43-.31a1.84,1.84,0,0,1-.6-.12.83.83,0,0,1-.35-.3,1.13,1.13,0,0,1-.12-1.15,2,2,0,0,1,.75-.9,2.46,2.46,0,0,1,.89-.41,1.5,1.5,0,0,1,.82,0,1.19,1.19,0,0,1,.57.44.93.93,0,0,1,.17.4,1.49,1.49,0,0,1,0,.5l.82-.58a3,3,0,0,0,.36-.29.36.36,0,0,0,0-.2.65.65,0,0,0-.14-.29l.12-.09Zm-4.35-5.2-1.49,1.28.06.07a.75.75,0,0,0,.65.32,1.7,1.7,0,0,0,.82-.35l.09.1-1.92,1.65-.09-.1a2.09,2.09,0,0,0,.4-.58.82.82,0,0,0,.06-.47,1.31,1.31,0,0,0-.28-.46l-1,.88a2.09,2.09,0,0,0-.35.35.3.3,0,0,0,0,.19.7.7,0,0,0,.16.26l.18.22a1.77,1.77,0,0,0,1,.62,1.73,1.73,0,0,0,1.1-.18l.09.1-1.31.84-2.72-3.16.1-.09.1.12a.64.64,0,0,0,.28.21.28.28,0,0,0,.22,0,1.52,1.52,0,0,0,.37-.27L105.41,39a2.12,2.12,0,0,0,.29-.27.33.33,0,0,0,.06-.23.58.58,0,0,0-.16-.35l-.1-.12.09-.08,2.63,3.07-1.08.93-.09-.11a1.65,1.65,0,0,0,.38-.71,1,1,0,0,0-.09-.61,2.91,2.91,0,0,0-.43-.61Zm-3.32-3.73L100.56,39a.84.84,0,0,0-.24.4.49.49,0,0,0,.18.3l-.08.09L99,38.57l.08-.09a.41.41,0,0,0,.34.12c.07,0,.19-.1.34-.28l2.25-2.62c.16-.18.24-.31.24-.4a.47.47,0,0,0-.17-.29l.08-.1ZM98.2,36.89l.7-.86a2.1,2.1,0,0,0-.84,0,.65.65,0,0,0-.35.21.41.41,0,0,0-.09.3.29.29,0,0,0,.13.23A.66.66,0,0,0,98.2,36.89ZM98,37.1a1.8,1.8,0,0,1-1.19-.27.64.64,0,0,1-.26-.44.61.61,0,0,1,.15-.48.92.92,0,0,1,.69-.33,6.15,6.15,0,0,1,1.62.26l.21-.26a1.84,1.84,0,0,0,.26-.4.37.37,0,0,0,0-.23.54.54,0,0,0-.16-.21.64.64,0,0,0-.36-.16.17.17,0,0,0-.17.06.31.31,0,0,0,0,.2.45.45,0,0,1-.08.32.37.37,0,0,1-.28.15.45.45,0,0,1-.34-.12.52.52,0,0,1-.21-.34.37.37,0,0,1,.08-.34.71.71,0,0,1,.46-.26,1.34,1.34,0,0,1,.67.08,2.18,2.18,0,0,1,.66.38,1.19,1.19,0,0,1,.46.62.93.93,0,0,1,0,.57,3.66,3.66,0,0,1-.39.56l-.81,1a1,1,0,0,0-.16.23.12.12,0,0,0,0,.1.12.12,0,0,0,0,.08.28.28,0,0,0,.23,0l0,.13a1.52,1.52,0,0,1-.53.07.88.88,0,0,1-.41-.18.64.64,0,0,1-.26-.38A.57.57,0,0,1,98,37.1Zm-1.71-1.81,0,.13a1.66,1.66,0,0,1-.85.25,1.49,1.49,0,0,1-.75-.22,1.32,1.32,0,0,1-.63-1,1.87,1.87,0,0,1,.3-1.24,2,2,0,0,1,1-.81,1.36,1.36,0,0,1,1.35.12,1.23,1.23,0,0,1,.56.65.78.78,0,0,1,0,.66.51.51,0,0,1-.28.21.48.48,0,0,1-.34-.07.49.49,0,0,1-.22-.31.87.87,0,0,1,.12-.51.48.48,0,0,0,.08-.32.23.23,0,0,0-.11-.17.36.36,0,0,0-.35,0,1.58,1.58,0,0,0-.6.61,2.78,2.78,0,0,0-.35.84,1.29,1.29,0,0,0,0,.76.72.72,0,0,0,.31.38.6.6,0,0,0,.32.1A1.55,1.55,0,0,0,96.33,35.29Zm-1.73-4-1.31,2.3a.71.71,0,0,0-.15.43c0,.09.09.17.22.26l-.06.11-1.58-.9.07-.11a.46.46,0,0,0,.35.06.78.78,0,0,0,.28-.35l1-1.69a.74.74,0,0,0,.15-.44.48.48,0,0,0-.23-.26l.07-.11ZM95,29.66a.52.52,0,0,1,.26.34.56.56,0,0,1,0,.42.56.56,0,0,1-.75.2.53.53,0,0,1-.26-.33.56.56,0,0,1,0-.42.57.57,0,0,1,.33-.26A.56.56,0,0,1,95,29.66Zm-3.56.77c0-.38-.11-.63-.33-.74a.32.32,0,0,0-.23,0,.77.77,0,0,0-.37.24,3.21,3.21,0,0,0-.46.72,3.33,3.33,0,0,0-.35.86.94.94,0,0,0,0,.51.35.35,0,0,0,.16.16c.19.1.44,0,.75-.16Zm1.94-1.54-1.78,3.4a2.55,2.55,0,0,0-.2.41.32.32,0,0,0,0,.2.58.58,0,0,0,.21.2l0,.11-1.38-.42.25-.46a1.94,1.94,0,0,1-.59.16.93.93,0,0,1-.45-.11,1.15,1.15,0,0,1-.62-1A2,2,0,0,1,89,30.27a2.27,2.27,0,0,1,.61-.77,1.4,1.4,0,0,1,.74-.33,1.21,1.21,0,0,1,.71.12,1.06,1.06,0,0,1,.34.28,1.39,1.39,0,0,1,.19.47l.47-.9a1.87,1.87,0,0,0,.19-.42.32.32,0,0,0-.05-.19.59.59,0,0,0-.26-.19L92,28.2Zm-5.62.49a3.71,3.71,0,0,0,.23-.76.63.63,0,0,0-.07-.37.35.35,0,0,0-.16-.13.38.38,0,0,0-.35.06,1.52,1.52,0,0,0-.51.74l0,.11Zm.74.53-1.71-.65a1.69,1.69,0,0,0,0,1.1.74.74,0,0,0,.45.49.69.69,0,0,0,.4,0,1.59,1.59,0,0,0,.51-.27l.08.12a2,2,0,0,1-.83.51,1.39,1.39,0,0,1-1.64-1,2,2,0,0,1,.12-1.17,1.9,1.9,0,0,1,.9-1.08,1.39,1.39,0,0,1,1.16-.08,1.16,1.16,0,0,1,.67.7A1.94,1.94,0,0,1,88.46,29.91Zm-6.42-2,2-2.82,1.91.43,0,.13-.15,0a.68.68,0,0,0-.35,0,.32.32,0,0,0-.18.13,1.68,1.68,0,0,0-.14.44l-.7,3.1a1.62,1.62,0,0,0-.07.47.31.31,0,0,0,.12.19.6.6,0,0,0,.3.14l.15,0,0,.12-2.45-.56,0-.12.15,0a.68.68,0,0,0,.35,0,.39.39,0,0,0,.18-.14,1.7,1.7,0,0,0,.13-.43l.8-3.49-2.79,3.88-.08,0-.87-4.68-.75,3.32a2.2,2.2,0,0,0-.08.43.44.44,0,0,0,.13.33.79.79,0,0,0,.45.22l0,.12-1.61-.37,0-.12h0a.66.66,0,0,0,.31,0,.53.53,0,0,0,.24-.1.71.71,0,0,0,.16-.23s0-.14.09-.36L80,25a1.4,1.4,0,0,0,.06-.46.36.36,0,0,0-.12-.2.7.7,0,0,0-.3-.14l-.15,0,0-.12,1.92.44ZM75.1,25.83c-.15-.35-.35-.53-.6-.55a.32.32,0,0,0-.22,0,.85.85,0,0,0-.25.37,3.77,3.77,0,0,0-.14.84,3.41,3.41,0,0,0,0,.94.83.83,0,0,0,.22.45.34.34,0,0,0,.21.09c.21,0,.42-.13.63-.45Zm1.16-2.18L76,27.48a2.35,2.35,0,0,0,0,.45.27.27,0,0,0,.1.18.49.49,0,0,0,.27.1v.12l-1.42.16,0-.52a2.16,2.16,0,0,1-.48.38.88.88,0,0,1-.46.07,1.11,1.11,0,0,1-1-.64,2,2,0,0,1-.21-1.15,2.38,2.38,0,0,1,.25-.95,1.48,1.48,0,0,1,.56-.6,1.15,1.15,0,0,1,.7-.16.9.9,0,0,1,.41.12,1.47,1.47,0,0,1,.37.35l.08-1a1.51,1.51,0,0,0,0-.45.25.25,0,0,0-.12-.16.62.62,0,0,0-.31-.08v-.15Zm-6.33,1.28v.43a2.39,2.39,0,0,1,.48-.41,1.14,1.14,0,0,1,.51-.13.83.83,0,0,1,.54.17.9.9,0,0,1,.29.45,3.63,3.63,0,0,1,.07.78l0,1.29a1.06,1.06,0,0,0,.07.48.46.46,0,0,0,.29.12v.12l-1.68,0v-.13A.38.38,0,0,0,70.8,28a1.24,1.24,0,0,0,0-.44l0-1.48a2.57,2.57,0,0,0,0-.52.29.29,0,0,0-.12-.16.25.25,0,0,0-.17-.06c-.2,0-.38.15-.56.44l0,1.79a1,1,0,0,0,.08.47.36.36,0,0,0,.26.13v.12l-1.68,0v-.12a.43.43,0,0,0,.3-.14.92.92,0,0,0,0-.46l0-1.89a1,1,0,0,0-.07-.48.41.41,0,0,0-.29-.11V25Zm-3.22,2.75-.15-1.1a2.12,2.12,0,0,0-.56.63.66.66,0,0,0-.08.4.35.35,0,0,0,.41.33A.65.65,0,0,0,66.71,27.68Zm0,.26a1.73,1.73,0,0,1-1,.68.62.62,0,0,1-.5-.12.63.63,0,0,1-.25-.43,1,1,0,0,1,.23-.73,6.28,6.28,0,0,1,1.31-1l0-.33a1.66,1.66,0,0,0-.11-.47.35.35,0,0,0-.18-.15.46.46,0,0,0-.26,0,.66.66,0,0,0-.37.15.18.18,0,0,0-.07.16.31.31,0,0,0,.13.17.45.45,0,0,1,.17.27.42.42,0,0,1-.09.32.43.43,0,0,1-.32.16.52.52,0,0,1-.39-.08.38.38,0,0,1-.19-.29.7.7,0,0,1,.13-.51,1.38,1.38,0,0,1,.51-.44,2.64,2.64,0,0,1,.74-.22,1.26,1.26,0,0,1,.77.1.85.85,0,0,1,.41.38,2.3,2.3,0,0,1,.14.67l.18,1.28a1.1,1.1,0,0,0,.06.28.12.12,0,0,0,.06.08l.08,0c.07,0,.12-.06.18-.16l.11.07a1.14,1.14,0,0,1-.31.43.73.73,0,0,1-.41.18.68.68,0,0,1-.46-.07A.63.63,0,0,1,66.75,27.94Zm-7.27-3.12.43,1.89a2.1,2.1,0,0,1,.4-.51.93.93,0,0,1,.43-.22.82.82,0,0,1,.56.05.85.85,0,0,1,.38.34,3,3,0,0,1,.26.77l.29,1.27a1,1,0,0,0,.17.45.41.41,0,0,0,.31.05l0,.12-1.64.38,0-.12a.37.37,0,0,0,.22-.2.85.85,0,0,0,0-.45l-.33-1.45a2.19,2.19,0,0,0-.15-.5.25.25,0,0,0-.14-.13.23.23,0,0,0-.18,0,.51.51,0,0,0-.25.15,1.34,1.34,0,0,0-.2.4l.4,1.74a1.58,1.58,0,0,0,.15.43.37.37,0,0,0,.31.08l0,.12-1.64.38,0-.12a.4.4,0,0,0,.26-.2.89.89,0,0,0,0-.46l-.76-3.31a1,1,0,0,0-.18-.45.45.45,0,0,0-.31-.05l0-.12Zm-2.75,1.09.39,1.16.75-.25.11.33-.75.25.66,2a1.46,1.46,0,0,0,.15.34.21.21,0,0,0,.13.1.2.2,0,0,0,.13,0c.15-.05.25-.2.31-.47l.12,0a1,1,0,0,1-.67.95.83.83,0,0,1-.56,0,.73.73,0,0,1-.39-.28,3.89,3.89,0,0,1-.25-.61l-.57-1.71-.42.14,0-.12a3.94,3.94,0,0,0,.51-.87,4.09,4.09,0,0,0,.28-.92Zm-2.2.46L56,30.24a1,1,0,0,0,.24.4.48.48,0,0,0,.35,0l0,.12L55,31.39l-.05-.11a.45.45,0,0,0,.27-.25.91.91,0,0,0-.09-.43l-1.24-3.22a.8.8,0,0,0-.24-.4.44.44,0,0,0-.34,0l0-.11Zm-1.46,5-.46-1a2.16,2.16,0,0,0-.36.76.7.7,0,0,0,0,.41.4.4,0,0,0,.23.21.3.3,0,0,0,.26,0A.7.7,0,0,0,53.07,31.37Zm.1.24a1.72,1.72,0,0,1-.77.94.65.65,0,0,1-.51,0,.64.64,0,0,1-.37-.35,1,1,0,0,1,0-.76,6.55,6.55,0,0,1,1-1.33l-.14-.3a1.66,1.66,0,0,0-.23-.42.46.46,0,0,0-.48-.05.69.69,0,0,0-.3.25.21.21,0,0,0,0,.18.41.41,0,0,0,.17.13.41.41,0,0,1,.25.21.4.4,0,0,1,0,.32.51.51,0,0,1-.26.26.56.56,0,0,1-.4,0,.42.42,0,0,1-.27-.23.74.74,0,0,1,0-.53,1.27,1.27,0,0,1,.37-.56,2.37,2.37,0,0,1,.64-.42,1.28,1.28,0,0,1,.76-.13,1,1,0,0,1,.51.25,2.71,2.71,0,0,1,.32.61L54,30.91a1,1,0,0,0,.13.25.21.21,0,0,0,.08.06.1.1,0,0,0,.09,0c.06,0,.1-.09.12-.19l.13,0a1.22,1.22,0,0,1-.17.5.83.83,0,0,1-.35.29.65.65,0,0,1-.46.06A.6.6,0,0,1,53.17,31.61Zm-3.57.11a3.12,3.12,0,0,0-.44-.65.63.63,0,0,0-.33-.19.3.3,0,0,0-.2,0,.35.35,0,0,0-.18.31,1.55,1.55,0,0,0,.24.86l.07.11Zm.88-.23-1.6.9a1.73,1.73,0,0,0,.82.74.76.76,0,0,0,.66,0,.7.7,0,0,0,.29-.3,1.43,1.43,0,0,0,.11-.55h.15a2.12,2.12,0,0,1-.14,1,1.31,1.31,0,0,1-.55.57,1.29,1.29,0,0,1-1.26.06,2,2,0,0,1-.82-.85,1.84,1.84,0,0,1-.26-1.37,1.41,1.41,0,0,1,.68-.95,1.16,1.16,0,0,1,1-.07A1.93,1.93,0,0,1,50.48,31.49Zm-6.19,3.26L45.17,36a1.66,1.66,0,0,0,.3.36.38.38,0,0,0,.22,0,.63.63,0,0,0,.31-.13l.12-.09.08.1-2.05,1.46-.07-.1.13-.09a.69.69,0,0,0,.23-.26.33.33,0,0,0,0-.22,1.25,1.25,0,0,0-.23-.39l-1.85-2.6a1.66,1.66,0,0,0-.3-.36.38.38,0,0,0-.22,0,.63.63,0,0,0-.31.13l-.13.09-.07-.1,2-1.46.07.1-.13.1a.67.67,0,0,0-.23.25.43.43,0,0,0,0,.23,1.7,1.7,0,0,0,.24.39l.79,1.11,1.4-1-.8-1.12a2,2,0,0,0-.3-.36.4.4,0,0,0-.23,0,.55.55,0,0,0-.3.13l-.13.09-.07-.1,2-1.47.07.11-.13.09a.67.67,0,0,0-.23.25.43.43,0,0,0,0,.23,1.93,1.93,0,0,0,.23.39l1.86,2.59a1.25,1.25,0,0,0,.3.36.31.31,0,0,0,.22,0,.63.63,0,0,0,.31-.13l.12-.09.08.1-2,1.46-.07-.1.12-.09a.61.61,0,0,0,.23-.26.32.32,0,0,0,0-.22,1.52,1.52,0,0,0-.23-.39l-.87-1.23Zm-4.16,2.6,1.57,1.7a.82.82,0,0,0,.34.26.51.51,0,0,0,.39-.19l.09.09-1.45,1.33L41,40.45a.74.74,0,0,0,.2-.26.31.31,0,0,0,0-.19,1.78,1.78,0,0,0-.22-.29L39.41,38l-.35.32-.24-.26.35-.32L39,37.58l-.11-.12a1.12,1.12,0,0,1-.31-.88,1.44,1.44,0,0,1,.51-.94,1,1,0,0,1,.59-.32.44.44,0,0,1,.4.12.36.36,0,0,1,.09.29.5.5,0,0,1-.18.33.41.41,0,0,1-.28.12.24.24,0,0,1-.22-.08.52.52,0,0,1-.07-.11.22.22,0,0,0-.07-.09.1.1,0,0,0-.1,0,.17.17,0,0,0-.14,0,.21.21,0,0,0-.07.18.4.4,0,0,0,.14.25l.42.46.29.31.36-.34.24.26Zm-2.79,2.47a.42.42,0,0,0-.11.32,1,1,0,0,0,.27.5c.18.2.44.47.79.8a5.44,5.44,0,0,0,.55.45.67.67,0,0,0,.4.14.37.37,0,0,0,.29-.12.45.45,0,0,0,.12-.25.65.65,0,0,0-.12-.37,8.56,8.56,0,0,0-.94-1,3.43,3.43,0,0,0-.65-.52.62.62,0,0,0-.38-.08A.37.37,0,0,0,37.34,39.82Zm-.19-.16a1.56,1.56,0,0,1,.72-.43,1.38,1.38,0,0,1,.85,0,2,2,0,0,1,.79.48,1.93,1.93,0,0,1,.61,1.07,1.4,1.4,0,0,1-.4,1.26,1.36,1.36,0,0,1-1.18.48A1.87,1.87,0,0,1,37.38,42a1.9,1.9,0,0,1-.62-1.16A1.36,1.36,0,0,1,37.15,39.66Zm-.87,6.71-2.64-.53a3.63,3.63,0,0,0-.78-.1.61.61,0,0,0-.31.13l-.1-.07,1-1.46.1.07a.39.39,0,0,0-.08.24.18.18,0,0,0,.08.14,1.75,1.75,0,0,0,.55.16l1.4.29-.61-.9a2.78,2.78,0,0,0-.5-.6.29.29,0,0,0-.23-.06.49.49,0,0,0-.24.21l-.11-.07.64-.91.1.07a.43.43,0,0,0-.05.29,3,3,0,0,0,.42.71l1.49,2.19a5.3,5.3,0,0,1,.63,1.09.75.75,0,0,1-.11.67.63.63,0,0,1-.41.3.54.54,0,0,1-.65-.38.39.39,0,0,1,.07-.33.37.37,0,0,1,.25-.18.55.55,0,0,1,.36.12.37.37,0,0,0,.16.07.1.1,0,0,0,.08-.05.25.25,0,0,0,0-.2,2.21,2.21,0,0,0-.37-.67Zm-4.86,1.11.66.37a2.51,2.51,0,0,1-.31-.84,1,1,0,0,1,.09-.5.44.44,0,0,1,.27-.22.54.54,0,0,1,.36.07.55.55,0,0,1,.26.29.35.35,0,0,1,0,.3.42.42,0,0,1-.27.22l-.2.08a.1.1,0,0,0,0,.06.25.25,0,0,0,0,.21.7.7,0,0,0,.19.36,2.44,2.44,0,0,0,.6.48l.67.37.17.1a1,1,0,0,0,.24.11.3.3,0,0,0,.19,0,.9.9,0,0,0,.19-.22l.11.06-.9,1.57-.11-.06a.39.39,0,0,0,0-.32,1.4,1.4,0,0,0-.43-.33l-1.6-.91a1.27,1.27,0,0,0-.34-.16.27.27,0,0,0-.18,0,.54.54,0,0,0-.18.17l-.1-.06Zm-2.35,1.71,1.08.56.37-.69.31.16-.37.7,1.83.95a1.49,1.49,0,0,0,.34.15.29.29,0,0,0,.16,0,.21.21,0,0,0,.11-.09c.07-.13,0-.32-.11-.55l.12,0a1,1,0,0,1,.17,1.14.81.81,0,0,1-.41.39.76.76,0,0,1-.48.07,4,4,0,0,1-.59-.27L30,50.8l-.2.39-.11-.06a4.78,4.78,0,0,0-.24-1,3.82,3.82,0,0,0-.44-.85Zm0,2.52,1.06.43-.05.11a1.79,1.79,0,0,0-.82.12.8.8,0,0,0-.36.34.39.39,0,0,0,0,.26.34.34,0,0,0,.16.19.27.27,0,0,0,.2,0A3.41,3.41,0,0,0,30,52.8a2.7,2.7,0,0,1,.83-.37,1,1,0,0,1,.57.08,1.25,1.25,0,0,1,.44.36.91.91,0,0,1,.2.52,1,1,0,0,1-.1.56,1.76,1.76,0,0,1-.4.52l-.1.11c0,.07,0,.16.09.26l-.05.11-1.11-.45.05-.11a1.52,1.52,0,0,0,.82-.11.82.82,0,0,0,.43-.38.37.37,0,0,0,0-.29.39.39,0,0,0-.19-.21.47.47,0,0,0-.31,0,3.2,3.2,0,0,0-.54.27,3.37,3.37,0,0,1-.82.4,1,1,0,0,1-.68-.06,1,1,0,0,1-.52-.53,1,1,0,0,1,0-.82,1.13,1.13,0,0,1,.34-.42.24.24,0,0,0,.11-.12.12.12,0,0,0,0-.1.46.46,0,0,0-.09-.18ZM28,54.55l2.47.94a.74.74,0,0,0,.45.09c.09,0,.16-.12.23-.26l.11,0-.65,1.7L30.47,57a.41.41,0,0,0,0-.36.77.77,0,0,0-.38-.22l-1.82-.7a.83.83,0,0,0-.45-.09.45.45,0,0,0-.22.27l-.12,0Zm-1.68-.11a.52.52,0,0,1,.29-.31.56.56,0,0,1,.42,0,.52.52,0,0,1,.31.29.56.56,0,0,1,0,.42.52.52,0,0,1-.29.31.56.56,0,0,1-.73-.28A.51.51,0,0,1,26.29,54.44Zm.34,4.14.41.12a2,2,0,0,1-.25-.58,1.15,1.15,0,0,1,0-.52.79.79,0,0,1,.32-.46.87.87,0,0,1,.51-.15,3.4,3.4,0,0,1,.77.17l1.24.36a.88.88,0,0,0,.48.07c.07,0,.14-.1.2-.24l.11,0L30,59l-.12,0a.39.39,0,0,0-.07-.31,1.25,1.25,0,0,0-.41-.18L28,58.06a2.19,2.19,0,0,0-.51-.11.38.38,0,0,0-.19,0,.31.31,0,0,0-.1.15c-.06.19,0,.41.25.66l1.72.51a1.09,1.09,0,0,0,.47.07.38.38,0,0,0,.2-.21l.12,0-.48,1.62-.12,0a.41.41,0,0,0,0-.32,1,1,0,0,0-.43-.19L27,59.75a.88.88,0,0,0-.48-.07c-.07,0-.14.1-.2.24l-.12,0Zm-.58,2.23,2.58.59a.81.81,0,0,0,.46,0,.43.43,0,0,0,.18-.29l.12,0L29,62.92l-.12,0a.47.47,0,0,0-.05-.36.75.75,0,0,0-.41-.17l-1.9-.43a.81.81,0,0,0-.46,0,.47.47,0,0,0-.19.29l-.12,0Zm-1.68.13a.54.54,0,0,1,.25-.34.49.49,0,0,1,.41-.07.51.51,0,0,1,.35.24.56.56,0,0,1,.07.42.54.54,0,0,1-.25.34.5.5,0,0,1-.41.07.51.51,0,0,1-.35-.24A.56.56,0,0,1,24.37,60.94Zm2.48,5.27-3-1.74.27-1.94.12,0,0,.15a.65.65,0,0,0,0,.35.39.39,0,0,0,.15.17,1.9,1.9,0,0,0,.44.1l3.16.43a1.61,1.61,0,0,0,.47,0,.33.33,0,0,0,.18-.14.59.59,0,0,0,.12-.3l0-.16.12,0-.34,2.49-.12,0,0-.15a.65.65,0,0,0,0-.35.38.38,0,0,0-.15-.16,1.28,1.28,0,0,0-.45-.1l-3.54-.49,4.11,2.44v.08l-4.59,1.28,3.37.46.44,0a.58.58,0,0,0,.32-.16.83.83,0,0,0,.18-.47l.12,0L28,69.74l-.12,0v0a1,1,0,0,0,0-.3.55.55,0,0,0-.12-.23.66.66,0,0,0-.25-.15l-.36,0-3-.42a1.61,1.61,0,0,0-.47,0,.34.34,0,0,0-.18.13.67.67,0,0,0-.11.32l0,.15-.13,0,.27-2Z"/>
<path class="cls-7" d="M113.16,88.91a3,3,0,0,0-.74-.27.63.63,0,0,0-.37,0,.34.34,0,0,0-.15.16.37.37,0,0,0,0,.35,1.6,1.6,0,0,0,.71.55l.11.05Zm.58-.7L113,89.88a1.73,1.73,0,0,0,1.1.11.73.73,0,0,0,.51-.42.62.62,0,0,0,0-.4,1.4,1.4,0,0,0-.23-.52l.12-.08a1.94,1.94,0,0,1,.46.87A1.38,1.38,0,0,1,113.91,91a2,2,0,0,1-1.17-.19,1.93,1.93,0,0,1-1-1,1.45,1.45,0,0,1,0-1.17,1.16,1.16,0,0,1,.74-.62A1.83,1.83,0,0,1,113.74,88.21Zm-4.09,2.21,1.09.56.36-.7.31.16-.36.7,1.83,1a1.84,1.84,0,0,0,.34.14.22.22,0,0,0,.16,0,.2.2,0,0,0,.11-.08c.07-.14,0-.32-.11-.55l.12-.06a1,1,0,0,1,.17,1.14.86.86,0,0,1-.4.4.75.75,0,0,1-.48.06,3,3,0,0,1-.6-.26l-1.6-.83-.2.39-.11-.06a4.78,4.78,0,0,0-.24-1,4.29,4.29,0,0,0-.44-.85Zm1.89,4.46-1-.55a2.35,2.35,0,0,0,.15.82.72.72,0,0,0,.27.32.47.47,0,0,0,.31,0,.37.37,0,0,0,.21-.17A.76.76,0,0,0,111.54,94.88Zm.23.13a1.77,1.77,0,0,1-.07,1.22.7.7,0,0,1-.4.32.68.68,0,0,1-.5-.07.91.91,0,0,1-.43-.63,6.08,6.08,0,0,1,0-1.64l-.29-.17a1.71,1.71,0,0,0-.43-.2.37.37,0,0,0-.22,0,.44.44,0,0,0-.19.19.64.64,0,0,0-.11.38.2.2,0,0,0,.09.16.36.36,0,0,0,.21,0,.54.54,0,0,1,.32,0,.38.38,0,0,1,.19.26.47.47,0,0,1-.06.36.55.55,0,0,1-.3.26.42.42,0,0,1-.35,0,.72.72,0,0,1-.33-.42,1.36,1.36,0,0,1,0-.67,2.4,2.4,0,0,1,.26-.72,1.32,1.32,0,0,1,.55-.55,1,1,0,0,1,.56-.09,2.78,2.78,0,0,1,.62.3L112,94a1,1,0,0,0,.25.12.2.2,0,0,0,.11,0l.06,0a.24.24,0,0,0,0-.23l.13-.06a1.43,1.43,0,0,1,.15.52.77.77,0,0,1-.11.43.74.74,0,0,1-.34.32A.6.6,0,0,1,111.77,95Zm-4.28,1.43.62.44a2.59,2.59,0,0,1-.22-.87.84.84,0,0,1,.14-.49.43.43,0,0,1,.28-.19.52.52,0,0,1,.36.11.57.57,0,0,1,.23.31.35.35,0,0,1-.05.3.47.47,0,0,1-.29.19l-.2.06a.18.18,0,0,0-.07,0,.3.3,0,0,0-.05.21.73.73,0,0,0,.16.38,2.53,2.53,0,0,0,.55.53l.63.44.16.12a1.23,1.23,0,0,0,.23.13.31.31,0,0,0,.19,0,.53.53,0,0,0,.21-.2l.1.08-1,1.47-.1-.07a.41.41,0,0,0,.08-.31,1.1,1.1,0,0,0-.4-.37l-1.5-1.07a1.42,1.42,0,0,0-.32-.19.28.28,0,0,0-.18,0,.45.45,0,0,0-.19.15l-.11-.07Zm-1.84,2.72a.41.41,0,0,0-.09.32,1,1,0,0,0,.32.47c.2.19.48.43.86.73a6.16,6.16,0,0,0,.59.4.67.67,0,0,0,.41.1A.4.4,0,0,0,108,101a.37.37,0,0,0,.09-.27.52.52,0,0,0-.15-.35,7.73,7.73,0,0,0-1-.9,3.74,3.74,0,0,0-.69-.46.7.7,0,0,0-.39,0A.39.39,0,0,0,105.65,99.16Zm-.21-.15a1.53,1.53,0,0,1,.68-.49,1.44,1.44,0,0,1,.85,0,2.06,2.06,0,0,1,.83.4,2,2,0,0,1,.71,1,1.44,1.44,0,0,1-.29,1.3,1.36,1.36,0,0,1-1.13.58,1.91,1.91,0,0,1-1.21-.43,2,2,0,0,1-.72-1.09A1.39,1.39,0,0,1,105.44,99Zm-2.35,1,.89.85.54-.58.25.25-.54.57,1.49,1.41a1.24,1.24,0,0,0,.29.24.23.23,0,0,0,.16,0,.23.23,0,0,0,.13-.06.55.55,0,0,0,0-.55l.13,0a1,1,0,0,1-.15,1.15.86.86,0,0,1-.49.27.82.82,0,0,1-.48-.07,3.14,3.14,0,0,1-.5-.43l-1.31-1.24-.3.32-.09-.09a5.06,5.06,0,0,0,0-1,4.36,4.36,0,0,0-.19-.94Zm1.45,3.87h.14a1.66,1.66,0,0,1,0,.88,1.42,1.42,0,0,1-.39.67,1.31,1.31,0,0,1-1.12.38,1.88,1.88,0,0,1-1.12-.6,2,2,0,0,1-.56-1.11,1.4,1.4,0,0,1,.44-1.29,1.23,1.23,0,0,1,.77-.38.78.78,0,0,1,.62.21.43.43,0,0,1,.14.32.5.5,0,0,1-.15.31.47.47,0,0,1-.35.14.82.82,0,0,1-.46-.24.59.59,0,0,0-.3-.16.29.29,0,0,0-.2.07.35.35,0,0,0-.08.34,1.54,1.54,0,0,0,.44.73,2.71,2.71,0,0,0,.73.54,1.36,1.36,0,0,0,.74.18.76.76,0,0,0,.44-.21.59.59,0,0,0,.18-.29A1.48,1.48,0,0,0,104.54,103.89Zm-3.66,1.82a3.14,3.14,0,0,0-.56-.56A.65.65,0,0,0,100,105a.28.28,0,0,0-.19.09.35.35,0,0,0-.11.33,1.57,1.57,0,0,0,.41.8l.08.09Zm.82-.4-1.39,1.2a1.8,1.8,0,0,0,1,.56.74.74,0,0,0,.65-.17.64.64,0,0,0,.21-.34,1.5,1.5,0,0,0,0-.57l.14,0a2.13,2.13,0,0,1,.06,1,1.32,1.32,0,0,1-.43.67,1.24,1.24,0,0,1-1.22.3,2,2,0,0,1-1-.66,1.9,1.9,0,0,1-.52-1.29,1.38,1.38,0,0,1,.48-1.07,1.15,1.15,0,0,1,.93-.26A1.91,1.91,0,0,1,101.7,105.31Zm-4.29,1.49.44.62a2.4,2.4,0,0,1,.07-.89.85.85,0,0,1,.3-.42.44.44,0,0,1,.33-.08.59.59,0,0,1,.41.58.34.34,0,0,1-.15.27.49.49,0,0,1-.33.09l-.21,0-.08,0a.29.29,0,0,0-.12.18.83.83,0,0,0,0,.41,2.81,2.81,0,0,0,.35.69l.45.62L99,109a1,1,0,0,0,.17.2.27.27,0,0,0,.19,0,.58.58,0,0,0,.26-.11l.08.1-1.48,1-.07-.1a.38.38,0,0,0,.17-.27,1.17,1.17,0,0,0-.25-.48L97,108a1.32,1.32,0,0,0-.24-.28.32.32,0,0,0-.17-.06.45.45,0,0,0-.23.08l-.08-.1Zm-1.61,1.13,1.43,2.22a.87.87,0,0,0,.32.34.46.46,0,0,0,.33-.08l.07.1-1.53,1-.06-.11a.45.45,0,0,0,.21-.29.82.82,0,0,0-.18-.41l-1-1.64c-.13-.2-.24-.31-.32-.33a.42.42,0,0,0-.33.08l-.07-.11Zm-1.29-1.08a.52.52,0,0,1,.42-.08.52.52,0,0,1,.34.24.52.52,0,0,1,.08.42.6.6,0,0,1-.24.34.52.52,0,0,1-.42.08.5.5,0,0,1-.34-.24.52.52,0,0,1-.08-.42A.5.5,0,0,1,94.51,106.85Zm-3.35,2.43L93,112.56a1.31,1.31,0,0,0,.21.3.22.22,0,0,0,.14,0,.72.72,0,0,0,.26-.1,1,1,0,0,0,.59-.8,2.74,2.74,0,0,0-.47-1.69,3.31,3.31,0,0,0-1-1.15A1.28,1.28,0,0,0,92,109,2.31,2.31,0,0,0,91.16,109.28Zm.67,4.88-.06-.11.14-.08a.58.58,0,0,0,.24-.22.38.38,0,0,0,.06-.23,1.66,1.66,0,0,0-.2-.41l-1.58-2.77a1.61,1.61,0,0,0-.26-.39.38.38,0,0,0-.22-.06.65.65,0,0,0-.32.1l-.13.08-.07-.11,1.88-1.07a3.47,3.47,0,0,1,1.33-.49,2.09,2.09,0,0,1,1.28.28,2.54,2.54,0,0,1,.94,1,2.74,2.74,0,0,1,.33.9,2.22,2.22,0,0,1,0,.82,2.13,2.13,0,0,1-.3.69,3.13,3.13,0,0,1-.59.64,3.9,3.9,0,0,1-.57.38Zm-3.5-.77a3.11,3.11,0,0,0-.35-.7.58.58,0,0,0-.3-.23.31.31,0,0,0-.21,0,.35.35,0,0,0-.21.28,1.54,1.54,0,0,0,.12.89l.05.11Zm.9-.1-1.7.67a1.67,1.67,0,0,0,.72.85.72.72,0,0,0,.65,0,.67.67,0,0,0,.32-.25,1.59,1.59,0,0,0,.19-.54l.14,0a2,2,0,0,1-.26.94,1.31,1.31,0,0,1-.63.5,1.29,1.29,0,0,1-1.25-.11,2,2,0,0,1-.7-1,1.89,1.89,0,0,1-.08-1.39,1.41,1.41,0,0,1,.8-.85,1.11,1.11,0,0,1,1,.06A1.87,1.87,0,0,1,89.23,113.29Zm-2.74,2,.14.05a1.68,1.68,0,0,1-.36.81,1.42,1.42,0,0,1-.64.44,1.31,1.31,0,0,1-1.17-.14,2.09,2.09,0,0,1-.78-2.27,1.37,1.37,0,0,1,.95-1,1.21,1.21,0,0,1,.86,0,.75.75,0,0,1,.47.45.47.47,0,0,1,0,.35.48.48,0,0,1-.27.21.46.46,0,0,1-.38,0,.82.82,0,0,1-.31-.42.57.57,0,0,0-.2-.26.26.26,0,0,0-.21,0,.36.36,0,0,0-.22.27,1.49,1.49,0,0,0,.09.85,2.83,2.83,0,0,0,.42.81,1.39,1.39,0,0,0,.59.47.69.69,0,0,0,.49,0,.59.59,0,0,0,.29-.18A1.32,1.32,0,0,0,86.49,115.32Zm-3.76-1.4.6,2.58a.75.75,0,0,0,.18.42.44.44,0,0,0,.34,0l0,.12-1.77.41,0-.12a.46.46,0,0,0,.3-.2.72.72,0,0,0,0-.45l-.43-1.9a.81.81,0,0,0-.19-.42.44.44,0,0,0-.34,0l0-.12Zm-.85-1.45a.48.48,0,0,1,.42.07.5.5,0,0,1,.24.34.48.48,0,0,1-.07.42.57.57,0,0,1-.34.24.53.53,0,0,1-.41-.07.54.54,0,0,1-.25-.34.56.56,0,0,1,.07-.42A.5.5,0,0,1,81.88,112.47ZM80.15,118l-1.56-2.34a2.61,2.61,0,0,0-.42-.54.4.4,0,0,0-.26-.08l0-.12,1.75-.31,0,.13a.35.35,0,0,0-.22.09.3.3,0,0,0,0,.2,1.84,1.84,0,0,0,.24.47l.76,1.14.24-1.14a2.28,2.28,0,0,0,.08-.68.26.26,0,0,0-.11-.17.45.45,0,0,0-.3,0l0-.12,1.07-.19,0,.13a.42.42,0,0,0-.23.16,2.14,2.14,0,0,0-.19.61L80.31,118Zm-3.05-1.66a3.49,3.49,0,0,0-.16-.77.64.64,0,0,0-.24-.29.26.26,0,0,0-.2,0,.36.36,0,0,0-.28.22,1.64,1.64,0,0,0-.1.89l0,.12Zm.9.12-1.81.24a1.69,1.69,0,0,0,.48,1,.72.72,0,0,0,1,0,1.46,1.46,0,0,0,.31-.47l.13.06a2,2,0,0,1-.49.85,1.4,1.4,0,0,1-1.91-.09,2,2,0,0,1-.45-1.09,1.86,1.86,0,0,1,.28-1.37,1.36,1.36,0,0,1,1-.63,1.16,1.16,0,0,1,.92.3A1.85,1.85,0,0,1,78,116.46Zm-6.24-2.28.08,3.77a1.31,1.31,0,0,0,0,.37.24.24,0,0,0,.1.1.7.7,0,0,0,.28,0,1.07,1.07,0,0,0,.9-.43,2.77,2.77,0,0,0,.4-1.71,3.31,3.31,0,0,0-.33-1.48,1.22,1.22,0,0,0-.61-.58A2.31,2.31,0,0,0,71.76,114.18ZM70,118.78v-.12h.16a.65.65,0,0,0,.32-.08.37.37,0,0,0,.17-.18,3.19,3.19,0,0,0,0-.45l-.07-3.19a1.77,1.77,0,0,0,0-.47.41.41,0,0,0-.16-.16.75.75,0,0,0-.33-.06h-.16V114l2.16,0a3.47,3.47,0,0,1,1.4.21,2.09,2.09,0,0,1,1,.85,2.66,2.66,0,0,1,.36,1.32,2.41,2.41,0,0,1-.15.94,2.08,2.08,0,0,1-.4.72,2.19,2.19,0,0,1-.59.46,3.22,3.22,0,0,1-.83.28,4.31,4.31,0,0,1-.68.06Zm-2-5-.32,4.13a.79.79,0,0,0,0,.46.5.5,0,0,0,.32.14v.12l-1.81-.14v-.12a.45.45,0,0,0,.34-.11.74.74,0,0,0,.1-.43l.27-3.44a.87.87,0,0,0,0-.46.46.46,0,0,0-.32-.14v-.12Zm-3.37,3.74.15-1.1a2.07,2.07,0,0,0-.71.45.66.66,0,0,0-.19.37.43.43,0,0,0,.08.3.31.31,0,0,0,.24.12A.65.65,0,0,0,64.63,117.55Zm0,.26a1.8,1.8,0,0,1-1.16.39A.63.63,0,0,1,63,118a.64.64,0,0,1-.13-.49.9.9,0,0,1,.41-.63,6,6,0,0,1,1.53-.62l0-.33a1.67,1.67,0,0,0,0-.48.38.38,0,0,0-.13-.19.43.43,0,0,0-.25-.1.62.62,0,0,0-.39,0,.17.17,0,0,0-.11.14.3.3,0,0,0,.07.19.47.47,0,0,1,.1.31.4.4,0,0,1-.17.28.46.46,0,0,1-.35.08.57.57,0,0,1-.36-.18.5.5,0,0,1-.11-.34.77.77,0,0,1,.27-.46,1.33,1.33,0,0,1,.61-.28,2.15,2.15,0,0,1,.76,0,1.26,1.26,0,0,1,.72.29.91.91,0,0,1,.3.48,2.68,2.68,0,0,1,0,.69l-.17,1.28a2,2,0,0,0,0,.28.19.19,0,0,0,.05.1.09.09,0,0,0,.07,0c.07,0,.13,0,.21-.1l.1.1a1.31,1.31,0,0,1-.42.33.77.77,0,0,1-.45.06.61.61,0,0,1-.42-.19A.61.61,0,0,1,64.6,117.81Zm-2.21-.7.09.11a1.71,1.71,0,0,1-.72.51,1.39,1.39,0,0,1-.78,0,1.32,1.32,0,0,1-.93-.72,2,2,0,0,1-.12-1.27,2,2,0,0,1,.62-1.08,1.42,1.42,0,0,1,1.32-.34,1.17,1.17,0,0,1,.74.44.74.74,0,0,1,.17.63.43.43,0,0,1-.19.29.44.44,0,0,1-.34,0,.51.51,0,0,1-.31-.22.75.75,0,0,1,0-.52.54.54,0,0,0,0-.33.27.27,0,0,0-.17-.13.38.38,0,0,0-.33.12,1.53,1.53,0,0,0-.37.77,2.79,2.79,0,0,0-.05.91,1.31,1.31,0,0,0,.26.71.69.69,0,0,0,.42.25.65.65,0,0,0,.34,0A1.45,1.45,0,0,0,62.39,117.11ZM59.75,114,59,116.5a.88.88,0,0,0,0,.46.49.49,0,0,0,.28.2l0,.12-1.75-.5,0-.12a.41.41,0,0,0,.35,0c.07,0,.13-.18.19-.4l.53-1.88a.71.71,0,0,0,0-.46c0-.08-.12-.14-.28-.2l0-.12Zm0-1.69a.51.51,0,0,1,.33.26.56.56,0,0,1,.05.42.51.51,0,0,1-.26.33.57.57,0,0,1-.42,0,.55.55,0,0,1-.38-.68.54.54,0,0,1,.26-.33A.51.51,0,0,1,59.71,112.27Zm-3,1.55a.76.76,0,0,0-.44-.69.36.36,0,0,0-.23,0,.87.87,0,0,0-.33.3,3,3,0,0,0-.35.77,3.49,3.49,0,0,0-.22.91.91.91,0,0,0,.1.5.31.31,0,0,0,.19.13c.19.07.43,0,.71-.27ZM58.38,112l-1.25,3.62c-.08.25-.12.39-.13.44a.31.31,0,0,0,0,.2.62.62,0,0,0,.24.16l0,.12-1.42-.21.17-.5a1.73,1.73,0,0,1-.56.25.87.87,0,0,1-.45,0,1.16,1.16,0,0,1-.77-.86,2,2,0,0,1,.09-1.17,2.44,2.44,0,0,1,.49-.85,1.34,1.34,0,0,1,.69-.44,1.18,1.18,0,0,1,.72,0,.91.91,0,0,1,.37.22,1.52,1.52,0,0,1,.26.43l.33-1a1.61,1.61,0,0,0,.12-.45.29.29,0,0,0-.07-.18.68.68,0,0,0-.29-.15l0-.15Zm-5,1.16a3,3,0,0,0,.27-.74.64.64,0,0,0,0-.37.28.28,0,0,0-.16-.14.35.35,0,0,0-.35,0,1.51,1.51,0,0,0-.55.7l0,.11Zm.7.58L52.44,113a1.74,1.74,0,0,0-.12,1.1.73.73,0,0,0,.42.51.7.7,0,0,0,.4.06,1.65,1.65,0,0,0,.52-.24l.08.13a2.17,2.17,0,0,1-.87.46,1.33,1.33,0,0,1-.78-.11,1.27,1.27,0,0,1-.79-1,2.08,2.08,0,0,1,.19-1.17,1.87,1.87,0,0,1,1-1,1.37,1.37,0,0,1,1.17,0,1.18,1.18,0,0,1,.63.74A1.88,1.88,0,0,1,54.1,113.75Zm-5.72-2.67L51.11,109l1.7,1-.06.11-.14-.08a.57.57,0,0,0-.33-.1.35.35,0,0,0-.21.07,1.7,1.7,0,0,0-.26.38l-1.59,2.76a1.38,1.38,0,0,0-.19.43.39.39,0,0,0,0,.22.69.69,0,0,0,.25.22l.13.08-.06.1-2.18-1.25.06-.1.14.07a.68.68,0,0,0,.33.11.37.37,0,0,0,.21-.08,1.54,1.54,0,0,0,.26-.37L51,109.4l-3.8,2.9-.08,0,.54-4.72-1.69,3a2.83,2.83,0,0,0-.2.39.53.53,0,0,0,0,.35.78.78,0,0,0,.37.34l-.07.11-1.43-.82.06-.11,0,0a.86.86,0,0,0,.29.11.55.55,0,0,0,.26,0,.62.62,0,0,0,.22-.17s.08-.13.19-.31l1.52-2.66a1.39,1.39,0,0,0,.2-.42.32.32,0,0,0-.06-.22.65.65,0,0,0-.24-.22l-.14-.08.06-.11,1.71,1Zm-2.66-5.5-2.57,3.24a.85.85,0,0,0-.22.41.43.43,0,0,0,.19.29l-.08.1-1.42-1.13.07-.09a.45.45,0,0,0,.35.1q.1,0,.33-.3l2.14-2.7a.81.81,0,0,0,.22-.41.5.5,0,0,0-.19-.29l.08-.1Zm-4.93,1.26.73-.84a2,2,0,0,0-.84,0,.64.64,0,0,0-.36.2.43.43,0,0,0-.1.29.36.36,0,0,0,.13.24A.66.66,0,0,0,40.79,106.84Zm-.17.19a1.76,1.76,0,0,1-1.18-.3.66.66,0,0,1-.23-.46.6.6,0,0,1,.16-.47.9.9,0,0,1,.7-.31,6.23,6.23,0,0,1,1.61.33l.22-.26a1.5,1.5,0,0,0,.27-.38.36.36,0,0,0,0-.23.51.51,0,0,0-.15-.23.66.66,0,0,0-.36-.17.17.17,0,0,0-.16,0,.3.3,0,0,0,0,.21.48.48,0,0,1-.09.31.4.4,0,0,1-.29.14.52.52,0,0,1-.34-.13.57.57,0,0,1-.2-.35.45.45,0,0,1,.1-.34.73.73,0,0,1,.47-.23,1.23,1.23,0,0,1,.66.1,2.08,2.08,0,0,1,.65.4,1.22,1.22,0,0,1,.44.64,1,1,0,0,1,0,.56,2.87,2.87,0,0,1-.41.55l-.85,1a1.12,1.12,0,0,0-.17.23.2.2,0,0,0,0,.1.12.12,0,0,0,0,.07.27.27,0,0,0,.23,0l0,.14a1.25,1.25,0,0,1-.53,0,.71.71,0,0,1-.4-.19.61.61,0,0,1-.25-.39A.58.58,0,0,1,40.62,107Zm-1.21-5-.32.3a1.69,1.69,0,0,1,.63.08,1,1,0,0,1,.44.28.78.78,0,0,1,.24.51.86.86,0,0,1-.13.52,3.53,3.53,0,0,1-.52.57l-1,.9c-.18.18-.28.3-.29.38s0,.17.11.29l-.09.09-1.16-1.23.09-.08a.36.36,0,0,0,.3.09,1,1,0,0,0,.36-.27l1.07-1a1.87,1.87,0,0,0,.35-.38.26.26,0,0,0,.05-.19.29.29,0,0,0-.07-.16.73.73,0,0,0-.71-.12l-1.3,1.24a.89.89,0,0,0-.29.38.32.32,0,0,0,.09.27l-.09.09-1.16-1.23.09-.08a.39.39,0,0,0,.3.12,1.19,1.19,0,0,0,.38-.27l1.36-1.31a.91.91,0,0,0,.3-.37.39.39,0,0,0-.11-.3l.09-.08Zm-2.32-2.33a.4.4,0,0,0-.31-.14.89.89,0,0,0-.52.23,11,11,0,0,0-.87.7,6.13,6.13,0,0,0-.51.51.67.67,0,0,0-.18.38.36.36,0,0,0,.1.3.38.38,0,0,0,.24.14.57.57,0,0,0,.37-.08,8.14,8.14,0,0,0,1.08-.84,3.63,3.63,0,0,0,.58-.6.64.64,0,0,0,.12-.37A.39.39,0,0,0,37.09,99.69Zm.17-.17a1.54,1.54,0,0,1,.36.75,1.47,1.47,0,0,1-.1.85,2.2,2.2,0,0,1-.56.74,1.83,1.83,0,0,1-1.12.5,1.54,1.54,0,0,1-1.59-1.74,2,2,0,0,1,.66-1.1A2,2,0,0,1,36.12,99,1.36,1.36,0,0,1,37.26,99.52ZM36,98.07l-2.16,1.52c-.19.14-.3.25-.32.33a.48.48,0,0,0,.09.33l-.1.07-1.05-1.48.1-.07a.53.53,0,0,0,.3.2c.08,0,.21-.06.41-.2l1.59-1.12c.19-.14.3-.25.32-.33A.43.43,0,0,0,35,97l.11-.07Zm1-1.34a.5.5,0,0,1,.1.41.54.54,0,0,1-.23.36.58.58,0,0,1-.41.09.5.5,0,0,1-.35-.23A.54.54,0,0,1,36,97a.5.5,0,0,1,.23-.35.54.54,0,0,1,.41-.1A.5.5,0,0,1,37,96.73Zm-1.31-1.17-1,.67.42.66-.29.19-.43-.66L32.6,97.53a1.75,1.75,0,0,0-.3.23.34.34,0,0,0-.06.15.25.25,0,0,0,0,.13.57.57,0,0,0,.53.18v.13a1,1,0,0,1-1.08-.42.8.8,0,0,1-.14-.55.77.77,0,0,1,.18-.44,2.54,2.54,0,0,1,.53-.39l1.51-1-.23-.37.1-.07a4.43,4.43,0,0,0,1,.28,3.35,3.35,0,0,0,1,0ZM30.81,95l1-.55a2.26,2.26,0,0,0-.79-.29.69.69,0,0,0-.41.07.44.44,0,0,0-.19.25.35.35,0,0,0,0,.26A.67.67,0,0,0,30.81,95Zm-.22.13a1.68,1.68,0,0,1-1-.68A.67.67,0,0,1,29.5,94a.62.62,0,0,1,.32-.39.88.88,0,0,1,.75-.06,6.22,6.22,0,0,1,1.42.84l.29-.16a2.74,2.74,0,0,0,.39-.27.48.48,0,0,0,.07-.22.48.48,0,0,0-.07-.26.58.58,0,0,0-.28-.28.15.15,0,0,0-.17,0s-.08.08-.11.18a.49.49,0,0,1-.19.26.4.4,0,0,1-.32,0,.5.5,0,0,1-.28-.24.55.55,0,0,1-.07-.39.44.44,0,0,1,.2-.29.73.73,0,0,1,.53-.07,1.38,1.38,0,0,1,.59.32,2.48,2.48,0,0,1,.48.59,1.28,1.28,0,0,1,.2.75,1,1,0,0,1-.2.53,2.5,2.5,0,0,1-.57.38l-1.12.64a1.84,1.84,0,0,0-.24.16.14.14,0,0,0-.05.09.14.14,0,0,0,0,.09.32.32,0,0,0,.21.1l0,.13a1.28,1.28,0,0,1-.52-.13.77.77,0,0,1-.31-.31.69.69,0,0,1-.11-.46A.61.61,0,0,1,30.59,95.14ZM32,88.48l-1.75,3.4L32.16,91a1,1,0,0,0,.49-.36.71.71,0,0,0,0-.61l.11,0,.66,1.45-.12.06a1.07,1.07,0,0,0-.26-.34.41.41,0,0,0-.25-.06,1.35,1.35,0,0,0-.47.14L28.6,92.92l-.05-.11,2.33-4.63-2.81,1.27a.69.69,0,0,0-.44.41.67.67,0,0,0,.05.46l.05.1-.12,0L26.9,88.9l.12-.05a.71.71,0,0,0,.38.44.74.74,0,0,0,.56-.08l3.12-1.41.07-.14a1.06,1.06,0,0,0,.13-.36A.82.82,0,0,0,31.2,87l.11,0Z"/>
<path class="cls-8" d="m95.86 65.29a9.82 9.82 0 0 1 1.5 5.22 10 10 0 0 1-15.79 8c9.14 4.9 18.77-3.47 14.29-13.24"/>
<path class="cls-8" d="M93.55,60.46s5.81,3.31,5.81,10a12,12,0,0,1-12,12c-4,0-6.81-1.92-9-5A11.37,11.37,0,1,0,95.52,62.52c-.68-.71-1.3-1.31-2-2.06"/>
<path class="cls-8" d="m55.66 65.55v8.83a2.4 2.4 0 0 0 2.16 2.56h0.71v-12.45a2.4 2.4 0 0 0-2.17-2.56h-5.67a2.39 2.39 0 0 0-2.16 2.56v12.45h0.7a2.4 2.4 0 0 0 2.16-2.56v-8.83c0.35-3.61 3.93-3.61 4.27 0m6.43 1.36v7.47a2.47 2.47 0 0 0 2.34 2.56h0.76v-12.42a2.46 2.46 0 0 0-2.34-2.52h-4.5c3.34 1 3.74 1.48 3.74 4.91zm7.81-2.17h6a2.15 2.15 0 0 0 1.94-2.16v-0.58h-9.38a2 2 0 0 0-1.94 2v3.73c0.65-2.42 1.1-2.99 3.38-2.99zm10.92 9.64h3.93-0.64c1 0 3.26 0 3.7-0.07a3.46 3.46 0 0 0 1.45-0.55 2.92 2.92 0 0 0 0.94-1.42 7.94 7.94 0 0 0 0.37-2.72 7.36 7.36 0 0 0-0.37-2.62 3.77 3.77 0 0 0-1-1.55 3.86 3.86 0 0 0-1.67-0.71 30.18 30.18 0 0 0-3.53-0.22h-2.59v8.58a2.14 2.14 0 0 1-2.56-1.74v-6.85c0-2.43 0.82-2.54 2.88-2.54h3.7c2.63 0 3.9 0 6.07 1.89a6.47 6.47 0 0 1 1.71 2.43 9.33 9.33 0 0 1 0.58 3.52 8.19 8.19 0 0 1-0.6 3.19 6.26 6.26 0 0 1-1.91 2.6 6.42 6.42 0 0 1-2.52 1.16 21.25 21.25 0 0 1-2.77 0.21h-5.47a2 2 0 0 1-1.94-2v-2.43a2.27 2.27 0 0 0 2.24 1.84zm-37.82 0.39v-11a2 2 0 0 1 2.13-1.88h0.69v13.17a2 2 0 0 1-2.13 1.88h-0.69zm27.43-4.39h5.47a2.1 2.1 0 0 0 1.94-2.09v-0.61h-9.38a1.93 1.93 0 0 0-1.94 1.9v5.42a1.93 1.93 0 0 0 1.94 1.9h9.41v-0.61a2.11 2.11 0 0 0-1.94-2.1h-5.47c-4.03 0.04-4.03-3.81 0-3.81z"/>
<text class="cls-9" transform="translate(42.55 82.5) scale(1.04 1)">N</text>
<text class="cls-9" transform="translate(45.71 82.5) scale(1.04 1)">a</text>
<text class="cls-9" transform="translate(48.25 82.5) scale(1.04 1)">t</text>
<text class="cls-9" transform="translate(50.09 82.5) scale(1.04 1)">i</text>
<text class="cls-9" transform="translate(51.32 82.5) scale(1.04 1)">o</text>
<text class="cls-9" transform="translate(53.92 82.5) scale(1.04 1)">n</text>
<text class="cls-9" transform="translate(56.58 82.5) scale(1.04 1)">a</text>
<text class="cls-9" transform="translate(59.13 82.5) scale(1.04 1)">l </text>
<text class="cls-9" transform="translate(62.06 82.5) scale(1.04 1)">M</text>
<text class="cls-9" transform="translate(65.61 82.5) scale(1.04 1)">e</text>
<text class="cls-9" transform="translate(68.26 82.5) scale(1.04 1)">d</text>
<text class="cls-9" transform="translate(70.98 82.5) scale(1.04 1)">i</text>
<text class="cls-9" transform="translate(72.21 82.5) scale(1.04 1)">c</text>
<text class="cls-9" transform="translate(74.59 82.5) scale(1.04 1)">a</text>
<text class="cls-9" transform="translate(77.13 82.5) scale(1.04 1)">l </text>
<text class="cls-10" transform="translate(42.56 87.41) scale(1.03 1)">D</text>
<text class="cls-10" transform="translate(45.45 87.41) scale(1.03 1)">e</text>
<text class="cls-10" transform="translate(47.99 87.41) scale(1.03 1)">v</text>
<text class="cls-10" transform="translate(50.23 87.41) scale(1.03 1)">i</text>
<text class="cls-10" transform="translate(51.4 87.41) scale(1.03 1)">c</text>
<text class="cls-10" transform="translate(53.68 87.41) scale(1.03 1)">e </text>
<text class="cls-10" transform="translate(57.79 87.41) scale(1.03 1)">D</text>
<text class="cls-10" transform="translate(60.68 87.41) scale(1.03 1)">i</text>
<text class="cls-10" transform="translate(61.85 87.41) scale(1.03 1)">r</text>
<text class="cls-10" transform="translate(63.56 87.41) scale(1.03 1)">e</text>
<text class="cls-10" transform="translate(66.1 87.41) scale(1.03 1)">c</text>
<text class="cls-10" transform="translate(68.37 87.41) scale(1.03 1)">t</text>
<text class="cls-10" transform="translate(70.13 87.41) scale(1.03 1)">o</text>
<text class="cls-10" transform="translate(72.61 87.41) scale(1.03 1)">r</text>
<text class="cls-10" transform="translate(74.33 87.41) scale(1.03 1)">a</text>
<text class="cls-10" transform="translate(76.76 87.41) scale(1.03 1)">t</text>
<text class="cls-10" transform="translate(78.51 87.41) scale(1.03 1)">e</text>
<text class="cls-11" transform="translate(83.32 87.41) scale(1.05 1)">I</text>
<text class="cls-11" transform="translate(84.51 87.41) scale(1.05 1)">R</text>
<text class="cls-11" transform="translate(87.34 87.41) scale(1.05 1)">.</text>
<text class="cls-11" transform="translate(89.01 87.41) scale(1.05 1)">I</text>
<text class="cls-11" transform="translate(90.19 87.41) scale(1.05 1)">R</text>
<text class="cls-11" transform="translate(93.03 87.41) scale(1.05 1)">A</text>
<text class="cls-11" transform="translate(95.9 87.41) scale(1.05 1)">N</text>
<path class="cls-8" d="m90.62 61.9 0.18 0.07c3.39 1.29 5.38 5.5 4.44 9.4a7.36 7.36 0 0 1-1.17 2.63 8.18 8.18 0 0 0 0.71-2 9.2 9.2 0 0 0-4.16-10.1z"/>
<circle class="cls-12" transform="translate(-29.47 71.15) rotate(-45)" cx="71.15" cy="71.15" r="39.64"/>
<circle class="cls-13" transform="translate(-28.91 60.55) rotate(-38.95)" cx="71.15" cy="71.15" r="38.2"/>
<path class="cls-14" d="M30,16.85H39.8l4.9-8.48a13.19,13.19,0,0,1,18-4.81l8.48,4.89,8.48-4.89a13.19,13.19,0,0,1,18,4.81l4.9,8.48h9.79A13.2,13.2,0,0,1,125.45,30V39.8l8.48,4.9a13.19,13.19,0,0,1,4.81,18l-4.89,8.48,4.89,8.48a13.19,13.19,0,0,1-4.81,18l-8.48,4.9v9.79a13.2,13.2,0,0,1-13.16,13.16H102.5l-4.9,8.48a13.19,13.19,0,0,1-18,4.81l-8.48-4.89-8.48,4.89a13.19,13.19,0,0,1-18-4.81l-4.9-8.48H30a13.2,13.2,0,0,1-13.16-13.16V102.5L8.37,97.6a13.19,13.19,0,0,1-4.81-18l4.89-8.48L3.56,62.67a13.19,13.19,0,0,1,4.81-18l8.48-4.9V30A13.2,13.2,0,0,1,30,16.85Z"/>
<path class="cls-14" d="M29.11,15.66h10l5-8.67A13.49,13.49,0,0,1,62.48,2.07l8.67,5,8.67-5A13.49,13.49,0,0,1,98.18,7l5,8.67h10a13.49,13.49,0,0,1,13.45,13.45v10l8.66,5a13.47,13.47,0,0,1,4.92,18.36l-5,8.67,5,8.67a13.47,13.47,0,0,1-4.92,18.36l-8.66,5v10a13.49,13.49,0,0,1-13.45,13.45h-10l-5,8.66a13.47,13.47,0,0,1-18.36,4.92l-8.67-5-8.67,5a13.47,13.47,0,0,1-18.36-4.92l-5-8.66h-10a13.49,13.49,0,0,1-13.45-13.45v-10L7,98.18A13.49,13.49,0,0,1,2.07,79.82l5-8.67-5-8.67A13.49,13.49,0,0,1,7,44.12l8.67-5v-10A13.49,13.49,0,0,1,29.11,15.66Z"/>
<path class="cls-15" d="M31.48,18.79h9.44l4.72-8.18A12.72,12.72,0,0,1,63,6l8.18,4.72L79.33,6a12.72,12.72,0,0,1,17.33,4.64l4.72,8.18h9.44a12.73,12.73,0,0,1,12.69,12.69v9.44l8.17,4.72A12.72,12.72,0,0,1,136.33,63l-4.72,8.18,4.72,8.18a12.72,12.72,0,0,1-4.65,17.33l-8.17,4.72v9.44a12.73,12.73,0,0,1-12.69,12.69h-9.44l-4.72,8.17a12.72,12.72,0,0,1-17.33,4.65l-8.18-4.73L63,136.33a12.72,12.72,0,0,1-17.33-4.65l-4.72-8.17H31.48a12.73,12.73,0,0,1-12.69-12.69v-9.44l-8.18-4.72A12.72,12.72,0,0,1,6,79.33l4.72-8.18L6,63a12.72,12.72,0,0,1,4.64-17.33l8.18-4.72V31.48A12.73,12.73,0,0,1,31.48,18.79Z"/>
<path class="cls-5" d="m56.44 21.75a51.48 51.48 0 0 1 64 34.72 51.39 51.39 0 1 1-98.55 29.39 51.46 51.46 0 0 1 34.52-64zm0.13 0.58a50.88 50.88 0 0 0-34.12 63.36 50.8 50.8 0 1 0 97.36-29.06 50.88 50.88 0 0 0-63.25-34.3z"/>
<text class="cls-16" transform="translate(47.18 54.99) scale(1.01 1)">Certiﬁcate </text>
<text class="cls-17" transform="translate(98.87 54.99) scale(1.01 1)"></text>
</g>
</g>
</svg>
