<svg id="Layer_1" data-name="Layer 1" xmlns="http://www.w3.org/2000/svg" viewBox="0 0 575 125.13"><defs><style>.cls-1{fill:#fedc00;}.cls-2{fill:#054973;}.cls-3{fill:#767676;}</style></defs><path class="cls-1" d="M331.57,0a28.92,28.92,0,0,0-28.92,28.92h0a28.92,28.92,0,0,0,28.92,28.93H402.5a28.92,28.92,0,0,0,28.92-28.93V0Z"/><path class="cls-1" d="M402.5,67.29H331.57a28.92,28.92,0,0,0-28.92,28.92v28.92H402.5a28.92,28.92,0,0,0,28.92-28.92h0A28.92,28.92,0,0,0,402.5,67.29Z"/><path class="cls-2" d="M535.58,67.29a28.92,28.92,0,0,0-28.92,28.92h0a28.92,28.92,0,0,0,28.92,28.92h10.5A28.92,28.92,0,0,0,575,96.21V67.29Z"/><path class="cls-2" d="M469.57,0H440.65V96.21a28.92,28.92,0,0,0,28.92,28.92h0a28.92,28.92,0,0,0,28.92-28.92V28.92A28.92,28.92,0,0,0,469.57,0Z"/><path class="cls-3" d="M204.77,119.82a5.32,5.32,0,0,0,5.32,5.31H226.4a5.32,5.32,0,0,0,5.32-5.31v-5.31H210.09A5.32,5.32,0,0,0,204.77,119.82Z"/><path class="cls-3" d="M223.45,75.58V86.05a8.6,8.6,0,0,1-7.52,8.68,8.36,8.36,0,0,1-9.18-8.31V70.27h-5.23a5.4,5.4,0,0,0-5.4,5.4V93.38c0,11-8.46,20.56-19.49,21.1A20.56,20.56,0,0,1,155.06,94V80.89h13.37V75.13a5.33,5.33,0,0,0-5.3-4.86H144.44v23c0,16.35,12.29,30.49,28.59,31.81a31.12,31.12,0,0,0,32.16-21.35l.3-.89.6.32a19.79,19.79,0,0,0,5.87,2,19,19,0,0,0,22.12-18.73V70.27l-5.87,0A5.29,5.29,0,0,0,223.45,75.58Z"/><path class="cls-3" d="M272.51,70.3a5.29,5.29,0,0,0-4.75,5.28v30.2a8.62,8.62,0,0,1-7.52,8.69,8.36,8.36,0,0,1-9.18-8.31V70.27h-5a5.62,5.62,0,0,0-5.62,5.61V105.6c0,9.88,7.32,18.52,17.15,19.45a19,19,0,0,0,20.8-18.89V70.27Z"/><path class="cls-3" d="M37.52,11.32A5.31,5.31,0,0,0,32.21,6H15.89a5.31,5.31,0,0,0-5.31,5.31v5.32H32.21A5.32,5.32,0,0,0,37.52,11.32Z"/><path class="cls-3" d="M133.56,16.64H113.08v19a8.61,8.61,0,0,1-7.51,8.68A8.37,8.37,0,0,1,96.38,36l0-19.34-5.87,0A5.31,5.31,0,0,0,85.76,22V36a8.35,8.35,0,0,1-8.35,8.35H19A8.35,8.35,0,0,1,10.63,36V16.67H5.31A5.32,5.32,0,0,0,0,22V36A19,19,0,0,0,19,55c.62,0,58.17,0,59,0a18.87,18.87,0,0,0,12.52-5.26l.55-.53.55.53a18.93,18.93,0,0,0,32.06-13.08c0-.34,0-5.28,0-8.52v-.79h9.47a8.79,8.79,0,0,1,8.87,7.67,8.54,8.54,0,0,1-8.49,9.39h-8.89v5.31A5.3,5.3,0,0,0,130,55h3c10,0,18.7-7.39,19.63-17.32A19.18,19.18,0,0,0,133.56,16.64Z"/><path class="cls-3" d="M272.51,16.67A5.29,5.29,0,0,0,267.76,22V36a8.35,8.35,0,1,1-16.7,0L251,16.64l-5.87,0A5.31,5.31,0,0,0,240.43,22V36a8.35,8.35,0,1,1-16.7,0V16.64l-5.87,0A5.29,5.29,0,0,0,213.11,22V36a8.35,8.35,0,0,1-16.7,0V0l-5.87,0a5.29,5.29,0,0,0-4.76,5.28V35.52a8.6,8.6,0,0,1-7.51,8.68,8.36,8.36,0,0,1-8.71-5.53l-.15-.49a8.64,8.64,0,0,1-.19-.85,8.27,8.27,0,0,1-.13-1.22c0-.07,0-.14,0-.22V0h-5a5.62,5.62,0,0,0-5.62,5.62V36a18.95,18.95,0,0,0,32.09,13.68l.55-.53.55.53a18.88,18.88,0,0,0,26.23,0l.55-.53.55.53a18.88,18.88,0,0,0,26.23,0l.55-.53.55.53A18.94,18.94,0,0,0,278.38,36V16.64Z"/><path class="cls-1" d="M175.88,80.92h-7.45v5.46a5.47,5.47,0,0,0,5.47,5.47h2a5.47,5.47,0,0,0,0-10.93Z"/></svg>