<svg xmlns="http://www.w3.org/2000/svg" width="120" height="120" viewBox="0 0 120 120">
    <g fill="none">
        <circle cx="60" cy="60" r="60" fill="#EDF4FF"/>
        <path fill="#FFF" d="M45 28h32v20c0 8.837-7.163 16-16 16s-16-7.163-16-16V28z"/>
        <path fill="#8CB5FF" d="M67 16H53c-6.627 0-12 5.373-12 12v12c0 2.21 1.79 4 4 4v-8c0-2.21 1.79-4 4-4h18c1.105 0 2-.895 2-2V18c0-1.105-.895-2-2-2z"/>
        <path fill="#FFF" d="M73 36h2.34c3.126 0 5.66 2.534 5.66 5.66v4.69c-.006 3.122-2.538 5.65-5.66 5.65H73V36z"/>
        <path fill="#8CB5FF" d="M71 16h2c6.627 0 12 5.373 12 12v19c0 4.97-4.03 9-9 9h-1c-1.105 0-2-.895-2-2s.895-2 2-2 2-.895 2-2v-4c0-1.105-.895-2-2-2s-2-.895-2-2v-6c-2.21 0-4-1.79-4-4V18c0-1.105.895-2 2-2zM37 115.007V86c0-9.941 8.059-18 18-18h16c9.941 0 18 8.059 18 18v27.08c-8.359 4.418-17.887 6.92-28 6.92-8.533 0-16.65-1.781-24-4.993z"/>
        <rect width="16" height="28" x="29" y="60" fill="#CCDFFF" rx="2.9"/>
        <path fill="#8CB5FF" d="M54 45.47c-.156.002-.31-.032-.45-.1-.975-.49-2.125-.49-3.1 0-.494.249-1.096.05-1.345-.445-.249-.494-.05-1.096.445-1.345 1.543-.77 3.357-.77 4.9 0 .49.25.687.848.44 1.34-.17.336-.513.549-.89.55zM66 45.47c-.156.002-.31-.032-.45-.1-.975-.49-2.125-.49-3.1 0-.494.249-1.096.05-1.345-.445-.249-.494-.05-1.096.445-1.345 1.543-.77 3.357-.77 4.9 0 .49.25.687.848.44 1.34-.17.336-.513.549-.89.55zM58 55.6c-1.545 0-3.069-.359-4.45-1.05-.494-.249-.694-.85-.445-1.345.249-.494.85-.694 1.345-.445 2.237 1.108 4.863 1.108 7.1 0 .494-.249 1.096-.05 1.345.445.249.494.05 1.096-.445 1.345-1.381.691-2.905 1.05-4.45 1.05z"/>
        <path fill="#FFF" d="M69 88h-1c-.552 0-1-.448-1-1s.448-1 1-1h14c.552 0 1 .448 1 1s-.448 1-1 1h-1c0 13.255-10.745 24-24 24s-24-10.745-24-24v-8.4c0-3.314 2.686-6 6-6s6 2.686 6 6V88c0 6.627 5.373 12 12 12s12-5.373 12-12z"/>
    </g>
</svg>
