<?xml version="1.0" standalone="no"?>
<!DOCTYPE svg PUBLIC "-//W3C//DTD SVG 20010904//EN"
 "http://www.w3.org/TR/2001/REC-SVG-20010904/DTD/svg10.dtd">
<svg version="1.0" xmlns="http://www.w3.org/2000/svg"
 width="1920.000000pt" height="1920.000000pt" viewBox="0 0 1920.000000 1920.000000"
 preserveAspectRatio="xMidYMid meet">
<metadata>
Created by potrace 1.11, written by Peter Selinger 2001-2013
</metadata>
<g transform="translate(0.000000,1920.000000) scale(0.100000,-0.100000)"
fill="#000000" stroke="none">
<path d="M1967 14004 c-1 -1 -44 -5 -96 -9 -52 -3 -97 -7 -100 -9 -3 -2 -28
-6 -56 -10 -27 -3 -59 -8 -70 -10 -479 -102 -904 -362 -1194 -731 -34 -44 -68
-87 -74 -95 -14 -17 -70 -107 -100 -160 -181 -320 -268 -641 -270 -995 -1
-322 46 -556 168 -840 227 -527 679 -939 1230 -1124 50 -16 101 -32 115 -34
14 -3 43 -10 65 -15 42 -12 76 -18 135 -28 19 -3 46 -7 60 -10 85 -14 468 -17
2755 -17 2256 0 2705 3 2780 17 11 2 42 7 68 10 26 4 108 22 181 40 349 88
661 264 921 521 202 200 341 404 464 687 43 98 105 324 126 458 17 113 20 287
20 1270 l0 1085 -3563 0 c-1960 0 -3564 0 -3565 -1z"/>
<path d="M9746 14000 c-6 -12 1 -6949 7 -6985 3 -22 9 -60 12 -85 20 -145 69
-330 133 -498 31 -81 138 -278 200 -367 206 -299 484 -540 792 -687 134 -64
153 -72 260 -106 84 -27 124 -39 245 -68 17 -4 185 -9 375 -11 319 -2 352 -1
440 18 122 27 261 71 375 119 78 33 113 51 230 114 63 34 202 132 280 198 429
359 690 865 731 1417 7 98 7 4985 0 5061 -8 78 -15 136 -21 170 -3 14 -7 41
-10 60 -3 19 -8 43 -11 52 -3 9 -7 25 -9 36 -2 10 -13 52 -25 93 -136 468
-433 869 -839 1137 -93 61 -301 171 -351 187 -14 4 -38 13 -55 21 -61 27 -266
82 -365 98 -19 3 -44 7 -55 10 -79 16 -339 20 -1273 20 -585 1 -1065 -1 -1066
-4z"/>
<path d="M1987 9254 c-1 -1 -47 -4 -102 -8 -55 -3 -111 -8 -125 -11 -14 -2
-36 -7 -50 -10 -14 -2 -41 -7 -60 -10 -19 -3 -70 -15 -113 -26 -770 -196
-1367 -842 -1502 -1624 -27 -159 -28 -227 -29 -1293 l-1 -1082 3700 1 3700 1
115 29 c179 46 283 85 435 160 163 80 204 106 340 208 182 137 364 337 489
536 133 211 251 514 281 720 3 23 8 52 10 65 25 122 25 484 0 610 -3 14 -10
52 -16 85 -21 120 -81 312 -136 435 -141 318 -376 608 -668 825 -194 144 -512
291 -715 331 -14 3 -52 11 -85 19 -57 13 -118 22 -215 32 -37 4 -5248 11
-5253 7z"/>
<path d="M16387 9254 c-1 -1 -45 -4 -97 -8 -102 -7 -128 -9 -175 -19 -16 -4
-46 -9 -65 -12 -19 -3 -70 -15 -113 -26 -507 -129 -941 -449 -1226 -904 -42
-67 -151 -275 -156 -299 -1 -6 -7 -24 -14 -40 -34 -84 -86 -266 -101 -356 -6
-36 -13 -76 -15 -90 -18 -102 -24 -347 -11 -475 32 -333 143 -654 320 -925
306 -467 785 -790 1332 -897 49 -10 1444 -11 1501 -1 111 19 315 82 441 137
576 249 1009 763 1166 1386 l25 100 -2 1215 -2 1215 -1403 0 c-772 0 -1404 0
-1405 -1z"/>
</g>
</svg>
